<svg width="40" height="40" viewBox="0 0 40 40" fill="none" xmlns="http://www.w3.org/2000/svg">
<path d="M32.9166 16.6667C32.9166 16.3351 32.7849 16.0172 32.5505 15.7828C32.3161 15.5484 31.9981 15.4167 31.6666 15.4167C31.3351 15.4167 31.0171 15.5484 30.7827 15.7828C30.5483 16.0172 30.4166 16.3351 30.4166 16.6667H32.9166ZM9.58326 16.6667C9.58326 16.3351 9.45157 16.0172 9.21715 15.7828C8.98273 15.5484 8.66478 15.4167 8.33326 15.4167C8.00174 15.4167 7.6838 15.5484 7.44938 15.7828C7.21496 16.0172 7.08326 16.3351 7.08326 16.6667H9.58326ZM34.1166 20.8833C34.231 21.0061 34.369 21.1046 34.5224 21.173C34.6757 21.2413 34.8412 21.278 35.0091 21.281C35.1769 21.2839 35.3436 21.2531 35.4993 21.1902C35.6549 21.1273 35.7963 21.0338 35.915 20.9151C36.0337 20.7964 36.1273 20.655 36.1901 20.4993C36.253 20.3437 36.2839 20.177 36.2809 20.0091C36.278 19.8413 36.2412 19.6758 36.1729 19.5224C36.1046 19.3691 36.0061 19.2311 35.8833 19.1167L34.1166 20.8833ZM19.9999 5L20.8833 4.11667C20.6489 3.88258 20.3312 3.7511 19.9999 3.7511C19.6687 3.7511 19.351 3.88258 19.1166 4.11667L19.9999 5ZM4.1166 19.1167C3.99379 19.2311 3.89528 19.3691 3.82696 19.5224C3.75864 19.6758 3.72191 19.8413 3.71894 20.0091C3.71598 20.177 3.74686 20.3437 3.80973 20.4993C3.87259 20.655 3.96617 20.7964 4.08487 20.9151C4.20356 21.0338 4.34495 21.1273 4.5006 21.1902C4.65625 21.2531 4.82296 21.2839 4.9908 21.281C5.15864 21.278 5.32416 21.2413 5.47749 21.173C5.63083 21.1046 5.76883 21.0061 5.88326 20.8833L4.1166 19.1167ZM11.6666 36.25H28.3333V33.75H11.6666V36.25ZM32.9166 31.6667V16.6667H30.4166V31.6667H32.9166ZM9.58326 31.6667V16.6667H7.08326V31.6667H9.58326ZM35.8833 19.1167L20.8833 4.11667L19.1166 5.88333L34.1166 20.8833L35.8833 19.1167ZM19.1166 4.11667L4.1166 19.1167L5.88326 20.8833L20.8833 5.88333L19.1166 4.11667ZM28.3333 36.25C29.5488 36.25 30.7146 35.7671 31.5742 34.9076C32.4337 34.048 32.9166 32.8822 32.9166 31.6667H30.4166C30.4166 32.8167 29.4833 33.75 28.3333 33.75V36.25ZM11.6666 33.75C10.5166 33.75 9.58326 32.8167 9.58326 31.6667H7.08326C7.08326 32.8822 7.56615 34.048 8.42569 34.9076C9.28523 35.7671 10.451 36.25 11.6666 36.25V33.75Z" fill="black"/>
</svg>
