<svg width="80" height="40" viewBox="0 0 80 40" fill="none" xmlns="http://www.w3.org/2000/svg">
<path d="M20.4351 21.9328C20.5494 21.9509 20.9802 20.5424 21.1991 18.9327C21.7066 15.1984 20.8241 12.2417 20.4351 11.1095C19.9486 9.69532 19.5234 8.49894 18.3983 7.38352C17.1993 6.19412 15.4274 5.31882 15.03 5.69714C14.9311 5.79206 14.8809 5.99867 14.8864 6.16201C14.899 6.48449 15.1276 6.72041 15.2587 6.83489C15.4985 6.98286 18.4387 8.81025 19.0243 10.1686C19.1511 10.4617 19.409 11.0578 19.1386 11.5032C19.0549 11.6414 18.942 11.7279 18.8667 11.7754C18.7649 11.827 17.8253 11.7628 17.2997 11.5395C15.985 10.9824 15.6644 10.3235 14.715 10.2844C14.2953 10.2677 13.6275 10.3654 13.4449 10.7758C13.3431 11.0048 13.4059 11.3007 13.5411 11.5004C13.9816 12.1537 15.1541 11.7042 16.2039 11.8926C18.5363 12.3115 19.6753 15.6186 19.8844 16.2063C20.3166 17.4195 20.3891 18.5768 20.4323 19.265C20.5299 20.8118 20.332 21.916 20.4323 21.9314L20.4351 21.9328Z" fill="#1C272C"/>
<path d="M21.8483 20.4558C21.8483 20.4558 23.6105 25.1227 21.8483 29.3177C20.0861 33.5141 15.3404 33.4345 15.3404 33.4345C15.3404 33.4345 11.3922 33.5909 9.23827 29.6304C7.08433 25.6699 8.37669 22.6503 8.37669 22.6503C8.37669 22.6503 11.0785 27.3563 14.5639 23.7881C14.5639 23.7881 18.7937 25.0822 18.1273 20.8858C18.0297 20.7238 17.861 20.467 17.6185 20.1794C16.6997 19.0961 15.9357 19.0458 15.7001 18.2976C15.5607 17.8564 15.6318 17.2631 15.9622 17.0007C16.4613 16.6042 17.4916 17.0118 18.0883 17.4739C19.8714 18.8532 19.9467 22.3949 18.6362 24.2976C18.257 24.8491 17.7202 25.3223 17.6645 25.3698C16.782 26.1418 15.8702 26.4964 15.3098 26.6653C15.3098 26.6653 18.4786 26.7281 20.0443 24.5322C21.6113 22.3362 21.8455 20.4544 21.8455 20.4544L21.8483 20.4558Z" fill="#1C272C"/>
<path d="M7.12545 0H0V21.7262H7.12545V0Z" fill="#1C272C"/>
<path d="M30.6237 4.44212V21.7262H23.4955V2.3132L30.6237 4.44212Z" fill="#1C272C"/>
<path d="M30.6237 21.7262V25.6266C30.6237 33.5644 24.1967 40 16.2696 40H14.3527C6.42699 40 0 33.5658 0 25.628V21.7276H7.12545V26.0399C7.12545 30.5643 10.7907 34.2359 15.3105 34.2359C19.8303 34.2359 23.4955 30.5657 23.4955 26.0399V21.7276H30.6251L30.6237 21.7262Z" fill="#1C272C"/>
<path d="M67.2338 39.4695L61.6014 39.5323L53.6172 0.411817L59.4335 0.392273L67.2338 39.4695Z" fill="#1C272C"/>
<path d="M63.9453 39.4625L69.1943 39.5993L79.9988 0.335037L72.6406 0.487203L63.9453 39.4625Z" fill="#1C272C"/>
<path d="M42.6953 39.4053L47.9456 39.5421L57.1832 0.407639L51.7781 0.421599L42.6953 39.4053Z" fill="#1C272C"/>
<path d="M46.2101 39.4695H40.5652L30.625 0.335037L38.4113 0.392274L46.2101 39.4695Z" fill="#1C272C"/>
<path d="M30.7194 0.309921H23.5117L31.3579 2.85067L30.7194 0.309921Z" fill="#1C272C"/>
</svg>
