<svg width="822" height="445" viewBox="0 0 822 445" fill="none" xmlns="http://www.w3.org/2000/svg">
<g filter="url(#filter0_d_339_195)">
<path d="M137.463 154.016L145.797 151.501L147.649 149.78L149.369 147L153.205 137.338L154.263 133.499L154.925 132.175L157.968 128.337L159.82 125.292L161.672 123.042L163.392 121.586L165.64 116.424L165.508 112.188L164.979 110.732L162.465 108.217L161.407 106.629L160.084 103.584L158.497 101.466L157.438 99.7455L156.116 94.0537L152.676 88.362L155.189 86.7736L156.38 85.7147L157.703 83.9939L159.82 76.9784L161.01 74.5959L163.921 70.6249L164.185 70.3601L166.434 67.7128L167.492 65.5949L167.889 63.2123L167.36 59.1089L168.154 56.594L168.815 55.0056L175.033 49.4462L174.504 47.0636L173.975 45.7399L167.757 38.3274L167.096 36.6066L167.492 35.8124L168.551 34.7535L170.535 33.4298L174.239 31.5767L183.632 23.37L185.087 21.6492L186.939 18.4724L188.262 17.1487L190.114 16.3545H193.025L195.935 16.7516L198.316 16.4869L200.697 15.6927L204.534 13.0454L208.238 10.0009L209.429 8.80962L211.148 7.61833L213.265 6.69175L219.483 5.89756L221.467 5.23573L225.436 2.5884L230.066 1.52946L231.257 1L232.712 3.38258L240.252 7.75069L250.306 9.86856L252.158 10.6627L253.614 11.9864L256.127 16.0898L259.17 18.8695L260.493 20.3255L262.742 28.1352L264.594 31.312L268.298 32.5032L271.737 32.3709L274.251 33.4298L276.632 34.8858L279.543 35.9448L287.745 37.4008L289.068 38.195L290.523 41.1071L291.449 42.2984L294.359 43.3573L297.137 44.0192L298.989 45.3428L298.196 53.1525L300.048 54.6085L306.794 54.8732L309.705 56.3292L313.541 60.8297L316.055 62.9476L318.039 63.7418L319.759 63.8742L327.961 63.3447L329.681 63.7418L332.194 64.536L333.782 64.8007L335.237 64.2712L336.428 63.2123L338.28 59.2413L339.073 58.1824L343.571 55.7998L344.894 55.4027L346.085 54.8732L347.143 53.5495L348.598 50.5051L349.524 49.1814L350.583 48.1225L353.89 47.4607L356.8 48.5196L362.356 52.4906L369.5 54.7409L370.559 56.7264L368.971 65.1978L368.442 66.5215L367.648 68.1099L366.458 68.9041L363.944 69.963L363.15 71.1543L362.886 72.2132V74.1987V74.3311V75.39L361.96 77.6403L358.123 79.8905L357.197 81.6113L358.388 90.7446V94.0537L357.859 99.0837L355.08 100.54L352.964 102.79L350.053 108.746L348.466 110.335L342.645 115.1L340.529 117.615L339.073 120.262L336.692 129.66L334.84 133.367L333.385 134.955L331.797 135.882L327.829 136.676L324.918 137.867L322.272 139.588L320.817 141.044L319.627 142.5L312.086 157.06L309.969 159.708L305.339 164.208L304.546 165.796L304.281 167.65L304.678 168.709L305.207 170.297L308.117 175.195L308.779 177.709L309.043 180.092L308.514 183.401L307.72 185.122L306.662 186.181L305.472 186.578L304.281 186.71H302.958L301.503 186.578L300.18 186.181L299.122 185.519L298.196 184.46L297.534 183.534L296.74 182.607L296.344 182.21L294.756 181.151L293.036 178.371L291.316 176.386L289.861 175.327L288.538 174.665L287.083 174.268L285.496 174.003L284.173 174.268L283.247 174.665L280.204 177.18L272.267 182.739L265.52 185.519L264.461 186.843L264.065 189.49L264.594 191.079L265.388 192.27L265.917 192.799L266.578 193.461L266.843 194.52L266.181 194.917L261.154 194.388L259.038 195.05L257.318 192.27L255.863 190.814L253.217 191.079L251.232 192.667L249.513 194.52L247.793 195.447L246.47 195.314L245.412 194.917L244.882 194.123L244.75 192.535L244.353 191.211L242.369 189.887L241.575 188.564L241.178 185.784L241.046 183.666L240.252 181.945L237.606 180.489L231.257 179.166L218.028 179.033L211.678 177.577L208.767 175.856L203.476 171.224L200.565 170.032L196.861 170.429L190.246 174.136L186.807 175.062L184.69 174.797L180.722 173.871L178.737 173.606L177.15 174.003L173.71 175.327H172.255L170.138 174.136L166.037 169.9L163.524 168.444L159.952 168.047L148.046 168.179L145.4 169.635L144.342 169.9L139.05 167.914L137.33 168.047L135.346 166.988L132.965 166.591L128.731 166.723L124.498 165.929L122.778 166.194L121.059 168.047L118.942 166.194L116.561 164.87L115.105 163.414L116.031 161.164L118.28 159.84L120.794 159.972L125.16 161.164L130.583 160.237L135.214 157.722L137.463 154.016Z" fill="#9C9C9C" stroke="white" stroke-width="0.5" stroke-linecap="round" stroke-linejoin="round"/>
<path d="M294.759 181.151L296.347 182.21L296.744 182.607L297.537 183.533L298.199 184.46L299.125 185.519L300.183 186.181L301.506 186.578L302.961 186.71H304.284L305.475 186.578L306.666 186.181L307.724 185.122L308.518 183.401L309.047 180.092L308.782 177.709L308.121 175.194L305.21 170.297L304.681 168.708L304.284 167.649L304.549 165.796L305.343 164.208L309.973 159.707L312.089 157.06L319.63 142.5L320.821 141.044L322.276 139.588L324.922 137.867L327.832 136.676L331.801 135.881L333.388 134.955L334.843 133.366L336.695 129.66L339.077 120.262L340.532 117.615L342.649 115.1L348.469 110.335L350.057 108.746L352.967 102.79L355.084 100.539L357.862 99.0835L357.597 101.201L358.656 103.716L361.963 105.702H365.667L368.577 104.246L371.488 103.584L376.118 107.952L378.896 109.143L381.807 109.805L384.188 109.938L386.172 109.408L390.273 107.555L391.993 107.29L393.845 108.217L395.3 109.673L396.755 110.864L399.401 111.129L401.65 110.07L405.09 106.231L407.074 104.908H409.588L411.836 105.702L416.07 107.82L419.245 107.29H422.684L426.124 107.687L429.299 108.481L432.342 110.599L434.326 112.585H436.178L439.75 107.025L440.147 108.349L441.602 106.496L441.999 105.172L444.512 104.246L445.571 103.319L445.703 101.863V100.275L446.1 98.8187L448.216 98.4216L448.878 102.128L449.142 109.54L451.524 113.908L454.302 117.482L457.609 120.659L461.445 123.174L467.928 126.086L471.103 128.072L473.352 130.587L473.881 132.44L474.542 136.146L477.188 139.588L477.453 141.176L477.32 142.764V144.75L478.511 148.589L480.098 150.971L485.258 155.604L487.11 158.648V161.825L486.448 165.267L486.316 168.708L488.036 172.812L490.682 173.871L497.428 173.076L501.133 173.473H501.662L498.884 180.886L498.355 184.857L498.751 190.814L498.619 194.52L498.09 196.108L497.164 197.035L493.857 197.697L492.931 197.961L491.475 199.417L489.491 202.462L487.11 207.624L485.258 210.669L483.538 213.051L477.717 219.405L470.706 228.141L470.044 230.523L468.325 233.7L467.399 235.289L465.679 237.009L465.017 238.068V238.201L465.811 240.583L466.076 241.642L466.737 248.393L463.298 252.232L454.566 253.688L452.847 254.747L452.185 255.806L452.053 257.262L451.656 258.982L450.333 261.233L448.746 262.027L446.629 262.159L425.462 260.835L424.404 260.438L423.478 259.909L420.303 257.394L416.599 253.952L412.895 251.967L408.529 250.643L403.767 249.849L397.285 248.658L388.024 243.363L386.04 241.642L384.585 239.922L383.923 238.333V238.068L383.394 234.23L383.129 233.171L382.468 232.244L381.807 231.318L381.145 230.259L380.616 229.2L380.351 227.347L379.161 216.89L377.176 210.669L376.515 209.345L375.589 208.418L374.001 207.889L366.858 206.3L359.317 202.859L356.804 202.065L354.819 201.8L344.633 202.329L343.045 202.594L338.944 203.918L335.902 204.183L332.594 205.109L329.42 207.095L327.038 207.889L325.186 208.021L315.926 207.095L314.074 201.8L313.412 200.741L312.354 199.682L310.766 198.888L299.919 198.491L297.537 197.961L296.876 197.299L296.744 196.505L297.405 195.182V194.255L296.876 192.931L295.024 190.284L293.966 188.563L293.304 187.24L293.172 186.181L293.304 185.254L293.569 184.328L294.363 182.21L294.759 181.151Z" fill="#9C9C9C" stroke="white" stroke-width="0.5" stroke-linecap="round" stroke-linejoin="round"/>
<path d="M420.303 257.394L423.478 259.909L424.404 260.438L425.462 260.836L446.629 262.159L448.745 262.027L450.333 261.233L451.656 258.982L452.053 257.262L452.185 255.806L452.846 254.747L454.566 253.688L463.297 252.232L466.737 248.393L466.076 241.642L465.811 240.583L465.017 238.201V238.069L465.679 237.01L467.398 235.289L468.324 233.7L470.044 230.524L470.706 228.141L477.717 219.405L483.538 213.051L485.258 210.669L487.11 207.624L489.491 202.462L491.475 199.417L492.93 197.961L493.857 197.697L497.164 197.035L498.09 196.108L498.619 194.52L498.751 190.814L498.354 184.857L498.884 180.886L501.662 173.474L502.72 173.209L504.704 172.282L509.335 167.649L510.261 166.988L510.128 165.929L511.98 165.135L511.848 164.87L511.187 163.943L510.922 163.811L510.128 162.884L509.599 162.355L509.467 160.634L509.202 159.707L509.07 158.913L508.673 157.854L508.541 156.795L508.276 155.869L507.35 154.678L506.292 153.619L506.027 153.354L505.498 152.295V150.971L505.763 149.251L505.895 148.192L506.027 147.397L506.16 146.206L506.424 144.618L505.63 142.103L505.366 140.647V140.117L506.424 139.058L508.805 139.191L510.261 139.455H510.393L509.864 137.47L514.494 134.028L514.758 133.764L515.817 132.572L516.611 131.91L517.14 131.513L518.992 130.322L519.256 128.998H519.521L519.653 129.396V129.925L519.785 130.057L519.918 129.925L520.976 132.308L521.241 136.411L520.315 139.852L518.992 142.632L519.389 144.221L520.447 145.412L521.505 147.397L522.564 152.163L523.49 154.28L525.739 155.472L525.871 155.604L528.781 156.398L531.824 156.795L534.602 157.457L537.116 159.31L540.555 163.678L542.01 164.737L543.465 165.002L544.656 164.605L545.847 163.943L547.17 163.678L548.493 164.34L553.52 168.576L556.43 169.767L558.414 169.635L560.266 168.576L560.531 168.841L560.928 168.179L563.838 166.723L567.013 165.002L568.998 162.62L569.262 161.561L569.659 160.899L569.791 160.634L570.056 159.575L572.569 162.222L576.935 169.106L577.993 173.474V177.974L578.787 186.446L580.11 191.211L580.242 194.652L580.639 197.3L580.11 199.153L579.449 200.344L578.39 202.065L577.2 204.447L575.744 209.345L574.157 212.787L572.569 215.037L570.717 216.36L567.146 217.552L564.103 218.081L562.648 218.611L561.589 219.14L556.827 224.038L554.578 225.626L547.302 233.965L534.073 246.275L531.824 249.584L529.31 255.276L527.987 258.982L527.723 260.438L527.591 261.895L527.855 263.086L529.31 266.66L529.443 268.116L529.046 270.234L528.384 272.881L524.548 279.499V280.558L526.929 281.22L535.263 281.088L540.026 282.147L542.143 282.808L543.465 283.735L544.392 285.191L545.45 286.382L546.111 287.044L550.741 289.824L551.403 290.486L551.8 291.015L551.006 292.604L546.508 298.031L542.407 301.605V302.531L542.804 303.325L543.598 303.987L544.259 304.649L545.053 305.576L546.244 309.679L547.302 314.576L547.434 319.474L546.905 321.857L545.979 323.313L539.761 325.166L535.925 327.813L531.559 334.034L528.12 335.358L526.665 335.226L524.68 334.696L520.844 332.975H519.521L518.198 333.637L516.214 336.02L515.552 337.211L515.155 338.27V339.461L515.288 340.388L516.478 343.829L516.875 345.947V354.286L517.007 356.007L517.404 357.728L518.066 359.581L518.992 361.434L521.638 365.538L522.431 366.994L522.96 368.979L522.828 370.568L522.299 372.024L515.42 386.849L515.155 387.378H514.891L511.583 387.51L510.657 387.246L509.864 386.451L499.677 380.098L495.179 378.642L490.02 380.23L486.448 380.627L483.935 382.216L473.748 390.952L470.573 392.805L468.192 393.202L467.134 392.276L466.869 390.952V389.496L466.605 388.172L465.414 387.113L463.959 387.51L462.504 388.04L461.181 387.775L453.243 381.422L451.127 378.774L449.539 372.95L450.597 360.772L449.539 355.081L447.423 352.566L435.781 346.08L434.194 345.55L422.552 350.183L416.07 353.625L410.778 356.537L408 357.331L405.354 356.537L402.841 356.404L400.327 358.654L398.343 361.169V361.037L398.078 354.286L398.343 350.977L399.666 345.683L401.915 339.594L406.809 332.446L407.603 330.593L408.132 328.74L408.397 325.828L408.132 323.71L407.868 322.121L407.603 321.195L407.338 319.739L407.206 318.415L407.471 316.562L408.132 314.576L410.249 310.738L419.642 297.634L420.7 293.795L421.097 289.559L421.361 288.368L421.626 287.441L422.023 286.779L422.287 285.323L422.155 283.47L421.361 279.632L420.568 277.381L419.642 275.793L418.98 274.999L418.054 274.205L416.863 273.278L413.292 271.425L411.969 270.366L411.307 269.307L410.778 267.851V266.395L411.043 265.204L413.424 262.424L420.303 257.394Z" fill="#9C9C9C" stroke="white" stroke-width="0.5" stroke-linecap="round" stroke-linejoin="round"/>
<path d="M515.156 387.378L515.421 386.849L522.3 372.024L522.829 370.568L522.961 368.979L522.432 366.994L521.639 365.538L518.993 361.434L518.067 359.581L517.405 357.728L517.008 356.007L516.876 354.286V345.947L516.479 343.829L515.289 340.388L515.156 339.461V338.27L515.553 337.211L516.215 336.02L518.199 333.637L519.522 332.975H520.845L524.681 334.696L526.666 335.226L528.121 335.358L531.56 334.034L535.926 327.813L539.762 325.166L545.98 323.313L546.906 321.857L547.435 319.474L547.303 314.576L546.245 309.679L545.054 305.576L544.26 304.649L543.599 303.987L542.805 303.325L542.408 302.531V301.605L546.509 298.031L551.007 292.604L551.801 291.015L551.404 290.486L550.742 289.824L546.112 287.044L545.451 286.382L544.393 285.191L543.466 283.735L542.144 282.808L540.027 282.147L535.264 281.088L526.93 281.22L524.549 280.558V279.499L528.385 272.881L529.047 270.234L529.444 268.116L529.311 266.66L527.856 263.086L527.592 261.895L527.724 260.439L527.988 258.982L529.311 255.276L531.825 249.584L534.074 246.275L547.303 233.965L554.579 225.626L556.828 224.038L561.59 219.14L562.649 218.611L564.104 218.081L567.146 217.552L570.718 216.36L572.57 215.037L574.158 212.787L575.745 209.345L577.201 204.447L578.391 202.065L579.45 200.344L580.111 199.153L580.64 197.3L580.243 194.652L580.111 191.211L578.788 186.446L577.994 177.974V173.474L576.936 169.106L572.57 162.222L570.057 159.575V159.31L569.925 158.384V158.251V155.604L569.792 153.883L570.057 153.486L571.644 151.104L572.041 150.045V148.986L573.1 146.736V146.471H574.158L575.745 146.074L576.274 144.882L576.804 142.632V141.044V140.117V137.999L577.333 136.94L577.73 136.808L579.714 138.264L581.698 140.117L584.08 141.176L586.064 140.779L587.916 141.176L590.43 140.647L590.694 140.25L590.826 140.117L590.959 139.058L591.223 138.661L592.282 138.264L595.06 137.338L596.912 138.132L599.558 139.853L601.674 141.838L602.336 143.824L601.674 148.853L602.865 151.104L607.363 152.692L617.681 152.163L621.782 155.472V155.604L623.105 159.575L625.487 162.355L628.662 163.811L632.498 164.208L636.864 163.414L638.716 162.884V163.149L638.319 173.738L639.906 181.151L640.965 184.592L641.229 186.181V187.107L640.435 190.417L640.171 194.255L641.361 201.138V203.521L641.097 205.109L638.319 214.904L635.541 231.715L634.879 233.965L633.424 240.716L632.895 242.437L631.175 244.422L628.529 247.467L628 248.393L627.471 250.908L629.191 256.997L635.012 267.057L635.541 269.837L635.408 272.087L635.012 273.146L634.218 274.205L633.159 274.866L631.837 275.396L630.646 276.058L629.852 276.984L629.455 279.632L630.249 287.044L630.117 289.956L628.926 300.148L629.323 302.531L630.117 304.649L633.027 307.693L634.482 309.679L635.144 311.664L636.467 336.946L641.361 337.741L658.956 333.637L664.115 333.505L666.629 334.431L667.29 337.476L666.497 340.785L665.967 341.976L665.042 345.418L664.909 346.477L664.115 348.462L661.999 350.183L657.898 352.698L647.579 363.684L644.272 365.141L641.891 367.258L638.583 381.157L636.467 384.731L635.673 386.849L636.07 388.437L636.599 389.628L636.864 391.481V393.335L636.599 394.791L635.408 396.511L632.233 399.423L631.704 400.747L627.603 402.203L622.973 404.983L621.518 408.689L618.607 411.998L615.036 414.381L611.199 415.44L609.876 415.175L604.585 413.19L602.6 413.454L601.542 415.043L600.484 417.028L599.028 418.219L596.25 417.69L585.932 411.336L576.01 406.836L573.1 404.983H572.967L570.983 402.6L568.999 400.879L566.617 399.556L563.839 398.894L559.341 397.041L550.213 392.143L545.848 390.555H544.525L541.35 390.952L540.291 390.82L539.233 389.628L539.101 387.246L538.043 386.187L535.529 385.657L532.354 386.054L526.798 388.04L523.491 390.158L522.432 390.423L520.977 390.158L520.051 389.496L519.39 388.702L518.331 388.172L516.082 387.51L515.156 387.378Z" fill="#9C9C9C" stroke="white" stroke-width="0.5" stroke-linecap="round" stroke-linejoin="round"/>
<path d="M631.702 400.747L632.231 399.423L635.406 396.511L636.597 394.79L636.861 393.334V391.481L636.597 389.628L636.068 388.437L635.671 386.848L636.464 384.731L638.581 381.157L641.888 367.258L644.27 365.14L647.577 363.684L657.896 352.698L661.997 350.183L664.113 348.462L664.907 346.477L665.039 345.418L665.965 341.976L666.494 340.785L667.288 337.476L666.627 334.431L664.113 333.505L658.954 333.637L641.359 337.74L636.464 336.946L635.142 311.664L634.48 309.679L633.025 307.693L630.115 304.649L629.321 302.531L628.924 300.148L630.115 289.956L630.247 287.044L629.453 279.631L629.85 276.984L630.644 276.058L631.834 275.396L633.157 274.866L634.216 274.204L635.009 273.146L635.406 272.087L635.538 269.836L635.009 267.057L629.189 256.997L627.469 250.908L627.998 248.393L628.527 247.466L631.173 244.422L632.893 242.436L633.422 240.716L634.877 233.965L635.538 231.715L638.317 214.904L641.095 205.109L641.359 203.521V201.138L640.169 194.255L640.433 190.416L641.227 187.107V186.181L640.962 184.592L639.904 181.151L638.317 173.738L638.713 163.149V162.884L639.507 162.619H640.433L642.153 162.752L645.857 165.002L650.487 170.032L658.557 180.621L664.378 183.798L668.214 184.063L675.755 183.136L684.221 185.386L687.661 183.401L690.042 181.283L693.482 183.666H693.746L694.805 183.533L696.524 181.68V181.548L697.583 180.754L698.112 180.489L697.583 182.077L695.863 184.989V187.504L698.509 187.372L711.605 183.666L717.294 182.21L719.808 181.945L722.718 182.739L723.512 183.666L724.041 184.989L724.835 186.313L726.025 187.24L728.539 187.372L733.037 184.857L735.286 184.195L738.857 184.857L741.635 185.916L738.064 195.976L734.889 202.726L732.507 206.3L730.788 208.153L729.332 209.08H728.274L727.084 208.551L726.157 207.756L725.231 207.227L724.173 206.962L722.983 207.359L722.321 208.683L720.998 214.639L719.411 219.14L717.691 222.184L714.913 225.891L713.325 228.67L712.135 231.318L710.415 238.068L708.96 247.996L707.769 252.099L707.372 255.144L707.24 257.659L707.769 259.512L708.695 261.1L717.559 270.763L718.617 271.689L720.204 272.351L726.819 273.675L741.239 279.631L747.456 282.014L749.705 283.735L750.367 284.794L750.631 285.853V286.912L750.367 287.838L749.441 288.897L747.192 291.015L746.53 292.206L746.133 293.927L745.737 295.251L745.075 296.574L743.884 297.501L742.562 298.295L735.947 300.545L734.227 301.472L730.391 304.384L722.189 312.988L715.177 321.724L712.267 324.504L715.574 329.137L718.881 338.799L720.072 340.785L721.395 342.108L723.909 343.565L729.729 345.947L729.994 346.079L737.27 356.139L739.519 360.507L739.783 361.699V364.346L736.608 378.245L736.212 414.248L736.476 416.763L737.138 419.014L733.566 421.793L728.01 424.308L722.85 422.852L712.267 416.763L707.769 415.969L702.874 416.234L698.112 417.557L694.011 420.072L692.291 422.455L689.513 428.412L687.661 430L685.677 429.603L679.459 426.823L677.607 425.632L676.284 423.382L675.226 420.867L673.638 419.278L669.14 420.734L661.203 421.661L656.97 419.808L653.662 415.307L651.149 409.88L649.694 404.983L647.974 396.776L647.842 393.996L647.445 390.952H645.725L643.608 392.805L639.11 397.438L637.258 398.894L631.702 400.747Z" fill="#9C9C9C" stroke="white" stroke-width="0.5" stroke-linecap="round" stroke-linejoin="round"/>
<path d="M737.14 419.014L736.478 416.763L736.214 414.248L736.611 378.245L739.786 364.346V361.699L739.521 360.508L737.272 356.139L729.996 346.08L729.732 345.947L723.911 343.565L721.397 342.109L720.074 340.785L718.884 338.799L715.576 329.137L712.269 324.504L715.18 321.724L722.191 312.988L730.393 304.384L734.229 301.472L735.949 300.546L742.564 298.295L743.887 297.501L745.077 296.575L745.739 295.251L746.136 293.927L746.533 292.206L747.194 291.015L749.443 288.897L750.369 287.838L750.633 286.912V285.853L750.369 284.794L749.708 283.735L747.459 282.014L741.241 279.632L726.821 273.675L720.207 272.351L718.619 271.69L717.561 270.763L708.697 261.1L707.771 259.512L707.242 257.659L707.375 255.144L707.771 252.099L708.962 247.996L710.417 238.068L712.137 231.318L713.328 228.67L714.915 225.891L717.693 222.184L719.413 219.14L721 214.64L722.323 208.683L722.985 207.359L724.175 206.962L725.234 207.227L726.16 207.756L727.086 208.551L728.276 209.08H729.335L730.79 208.154L732.51 206.3L734.891 202.727L738.066 195.976L741.638 185.916L744.813 187.24L747.591 186.975H747.855H748.517L748.781 186.843L753.015 184.725L756.587 181.548L759.365 177.577L761.614 172.944L763.333 170.297L764.921 170.032L767.831 171.62L779.473 172.15L780.928 172.679L784.103 174.268L785.955 174.665L787.807 174.268L791.776 172.679L793.496 172.547L796.935 173.606L803.285 177.18L806.592 177.974L810.164 178.768L812.149 179.562L813.339 180.489L813.736 182.474L811.884 185.651L812.678 192.402L811.09 196.638L808.974 201.006L805.402 214.904L796.274 230.656L792.57 238.995L792.305 240.848L792.57 242.437L793.231 245.746L793.628 246.408L794.951 247.864L795.215 248.525L794.951 249.981L794.157 250.908L793.496 251.702L792.834 252.894L791.644 256.6L791.247 258.453L791.379 260.836L792.04 262.689L793.893 265.865L794.289 267.719L793.363 271.822L789.792 280.029L787.543 285.059L786.881 296.707L784.765 301.604L784.5 302.928L784.765 304.252L785.426 305.575L787.807 307.826L790.453 313.782L793.099 315.503L795.348 316.562L797.332 318.415L800.375 322.783L803.417 328.078L805.534 333.902L806.857 336.417L810.164 341.579L811.487 344.094L812.016 347.006L812.546 354.154L813.868 360.64L814.001 363.817L813.868 366.994L813.207 370.17L810.693 377.451L804.079 390.555L801.962 397.703L800.904 401.277L800.772 402.865L801.168 404.983L799.978 411.734L795.612 419.676L790.056 425.632L785.426 426.161L783.309 424.176L778.547 421.264L776.43 419.278L775.504 417.69L774.578 414.778L773.917 413.454L773.52 413.587L769.948 410.675L769.816 410.013L767.17 410.675L762.672 414.513H760.158L757.513 413.057L754.999 412.131L753.015 412.925L752.089 416.366L751.03 418.881L748.781 420.073L746.4 419.676L744.416 417.955L742.035 416.631L738.727 417.822L737.14 419.014Z" fill="#9C9C9C" stroke="white" stroke-width="0.5" stroke-linecap="round" stroke-linejoin="round"/>
<path d="M259.042 195.049L261.159 194.387L266.186 194.917L266.847 194.52L266.583 193.461L265.921 192.799L265.392 192.27L264.598 191.078L264.069 189.49L264.466 186.843L265.524 185.519L272.271 182.739L280.209 177.18L283.251 174.665L284.177 174.268L285.5 174.003L287.088 174.268L288.543 174.665L289.866 175.327L291.321 176.386L293.041 178.371L294.761 181.151L294.364 182.21L293.57 184.328L293.305 185.254L293.173 186.181L293.305 187.24L293.967 188.563L295.025 190.284L296.877 192.931L297.406 194.255V195.182L296.745 196.505L296.877 197.299L297.539 197.961L299.92 198.491L310.768 198.888L312.355 199.682L313.413 200.741L314.075 201.8L315.927 207.095L325.187 208.021L327.039 207.889L329.421 207.095L332.596 205.109L335.903 204.183L338.946 203.918L343.047 202.594L344.634 202.329L354.82 201.8L356.805 202.065L359.318 202.859L366.859 206.3L374.003 207.889L375.59 208.418L376.516 209.345L377.178 210.668L379.162 216.89L380.353 227.347L380.617 229.2L381.146 230.259L381.808 231.318L382.469 232.244L383.131 233.171L383.395 234.23L383.924 238.068V238.333L384.586 239.922L386.041 241.642L388.025 243.363L397.286 248.658L403.768 249.849L408.53 250.643L412.896 251.967L416.6 253.952L420.304 257.394L413.425 262.424L411.044 265.204L410.779 266.395V267.851L411.308 269.307L411.97 270.366L413.293 271.425L416.865 273.278L418.055 274.204L418.981 274.999L419.643 275.793L420.569 277.381L421.363 279.632L422.156 283.47L422.289 285.323L422.024 286.779L421.627 287.441L421.363 288.368L421.098 289.559L420.701 293.795L419.643 297.633L410.25 310.738L408.134 314.576L407.472 316.562L407.208 318.415L407.34 319.739L407.604 321.195L407.869 322.121L408.134 323.71L408.398 325.827L408.134 328.74L407.604 330.593L406.811 332.446L401.916 339.594L399.667 345.682L398.344 350.977L398.079 354.286L398.344 361.037V361.169L397.947 361.566L395.566 363.287L390.407 364.876L388.29 365.008L374.532 361.302L370.298 356.801V351.109L369.769 346.08L363.948 343.565L360.641 343.962L352.307 347.271L348.47 346.874L348.206 344.756L348.47 342.241L345.957 340.917L343.973 340.653L342.253 340.123L338.813 338.27L337.49 335.358L336.697 331.916L334.58 328.74L331.273 326.754L323.864 324.371L320.425 322.254L318.837 319.606L316.456 319.077L314.075 320.003L312.091 321.459H310.371L292.644 316.694L290.66 315.238L289.866 311.797L291.189 307.958L293.305 304.119L294.761 300.545L295.554 293.927L295.157 287.574L293.834 281.352L291.453 275.263L287.617 269.704L283.251 266.66L240.786 258.85L237.611 256.732L234.833 252.761L233.378 249.717L231.393 248.128L226.895 248.922L225.44 248.393L223.853 244.422L222.53 242.834L218.958 241.378L217.371 240.451L215.915 238.995L215.386 235.951L212.74 235.421L209.83 236.612L202.289 245.878L199.114 248.128L194.484 248.261L188.531 247.202L186.679 246.54L188.928 244.554L189.457 242.834L189.325 240.848V238.995L190.383 237.142L192.103 235.024L191.574 234.23H188.399L187.076 233.7L186.944 232.377L187.87 230.921L188.928 229.729L190.251 229.465H191.971L201.893 230.788L205.2 230.523L208.243 228.538L213.27 232.112L215.122 229.994L221.075 219.934L224.514 215.963L226.895 217.022L228.748 215.566L231.526 211.595L233.378 210.801L234.965 210.933L236.817 211.33L239.198 211.595L243.167 210.139L247.004 207.227L250.708 205.374L254.809 206.83L258.91 204.315L260.365 202.462L260.894 200.079L260.365 198.094L259.042 195.049Z" fill="#9C9C9C"/>
<path d="M186.679 246.54L188.531 247.202L194.484 248.261L199.114 248.128L202.289 245.878L209.83 236.612L212.74 235.421L215.386 235.951L215.915 238.995L217.371 240.451L218.958 241.378L222.53 242.834L223.853 244.422L225.44 248.393L226.895 248.922L231.393 248.128L233.378 249.717L234.833 252.761L237.611 256.732L240.786 258.85L283.251 266.66L287.617 269.704L291.453 275.263L293.834 281.352L295.157 287.574L295.554 293.927L294.761 300.545L293.305 304.119L291.189 307.958L289.866 311.797L290.66 315.238L292.644 316.694L310.371 321.459H312.091L314.075 320.003L316.456 319.077L318.837 319.606L320.425 322.254L323.864 324.371L331.273 326.754L334.58 328.74L336.697 331.916L337.49 335.358L338.813 338.27L342.253 340.123L343.973 340.653L345.957 340.917L348.47 342.241L348.206 344.756L348.47 346.874L352.307 347.271L360.641 343.962L363.948 343.565L369.769 346.08L370.298 351.109V356.801L374.532 361.302L388.29 365.008L390.407 364.876L395.566 363.287L397.947 361.566L398.344 361.169V361.037L398.079 354.286L398.344 350.977L399.667 345.682L401.916 339.594L406.811 332.446L407.604 330.593L408.134 328.74L408.398 325.827L408.134 323.71L407.869 322.121L407.604 321.195L407.34 319.739L407.208 318.415L407.472 316.562L408.134 314.576L410.25 310.738L419.643 297.633L420.701 293.795L421.098 289.559L421.363 288.368L421.627 287.441L422.024 286.779L422.289 285.323L422.156 283.47L421.363 279.632L420.569 277.381L419.643 275.793L418.981 274.999L418.055 274.204L416.865 273.278L413.293 271.425L411.97 270.366L411.308 269.307L410.779 267.851V266.395L411.044 265.204L413.425 262.424L420.304 257.394L416.6 253.952L412.896 251.967L408.53 250.643L403.768 249.849L397.286 248.658L388.025 243.363L386.041 241.642L384.586 239.922L383.924 238.333V238.068L383.395 234.23L383.131 233.171L382.469 232.244L381.808 231.318L381.146 230.259L380.617 229.2L380.353 227.347L379.162 216.89L377.178 210.668L376.516 209.345L375.59 208.418L374.003 207.889L366.859 206.3L359.318 202.859L356.805 202.065L354.82 201.8L344.634 202.329L343.047 202.594L338.946 203.918L335.903 204.183L332.596 205.109L329.421 207.095L327.039 207.889L325.187 208.021L315.927 207.095L314.075 201.8L313.413 200.741L312.355 199.682L310.768 198.888L299.92 198.491L297.539 197.961L296.877 197.299L296.745 196.505L297.406 195.182V194.255L296.877 192.931L295.025 190.284L293.967 188.563L293.305 187.24L293.173 186.181L293.305 185.254L293.57 184.328L294.364 182.21L294.761 181.151L293.041 178.371L291.321 176.386L289.866 175.327L288.543 174.665L287.088 174.268L285.5 174.003L284.177 174.268L283.251 174.665L280.209 177.18L272.271 182.739L265.524 185.519L264.466 186.843L264.069 189.49L264.598 191.078L265.392 192.27L265.921 192.799L266.583 193.461L266.847 194.52L266.186 194.917L261.159 194.387L259.042 195.049L260.365 198.094L260.894 200.079L260.365 202.462L258.91 204.315L254.809 206.83L250.708 205.374L247.004 207.227L243.167 210.139L239.198 211.595L236.817 211.33L234.965 210.933L233.378 210.801L231.526 211.595L228.748 215.566L226.895 217.022L224.514 215.963L221.075 219.934L215.122 229.994L213.27 232.112L208.243 228.538L205.2 230.523L201.893 230.788L191.971 229.465H190.251L188.928 229.729L187.87 230.921L186.944 232.377L187.076 233.7L188.399 234.23H191.574L192.103 235.024L190.383 237.142L189.325 238.995V240.848L189.457 242.834L188.928 244.554L186.679 246.54ZM186.679 246.54H186.547" stroke="white" stroke-width="0.5" stroke-linecap="round" stroke-linejoin="round"/>
<path d="M63.3828 113.512L75.0244 111.394L77.5379 112.056L80.5806 113.247L88.6503 120.527L91.5607 122.248L93.6773 122.91L97.6461 123.042L99.6304 123.704L102.805 125.425L104.657 126.616L105.98 127.94L107.039 129.66L108.362 131.249L110.743 132.97L112.727 133.631L116.96 133.896L119.871 134.426L121.855 135.22L123.443 136.146L130.322 142.103L131.248 143.162L131.512 144.353L130.983 145.28L131.248 147.265L131.909 148.986L132.968 149.251L134.026 149.118L135.349 149.648L137.466 154.016L135.217 157.722L130.586 160.237L125.162 161.164L120.797 159.972L118.283 159.84L116.034 161.164L115.108 163.414L116.564 164.87L118.945 166.194L121.062 168.047L122.781 166.194L124.501 165.929L128.734 166.723L132.968 166.591L135.349 166.988L137.333 168.047L139.053 167.914L144.345 169.9L145.403 169.635L148.049 168.179L159.955 168.047L163.527 168.444L166.04 169.9L170.141 174.136L172.258 175.327H173.713L177.153 174.003L178.74 173.606L180.725 173.871L184.693 174.797L186.81 175.062L190.249 174.136L196.864 170.429L200.568 170.032L203.479 171.224L208.77 175.856L211.681 177.577L218.03 179.033L231.26 179.166L237.609 180.489L240.255 181.945L241.049 183.666L241.181 185.784L241.578 188.564L242.372 189.887L244.356 191.211L244.753 192.535L244.885 194.123L245.415 194.917L246.473 195.314L247.796 195.447L249.516 194.52L251.235 192.667L253.22 191.079L255.866 190.814L257.321 192.27L259.041 195.05L260.363 198.094L260.893 200.079L260.363 202.462L258.908 204.315L254.807 206.83L250.706 205.374L247.002 207.227L243.166 210.139L239.197 211.595L236.816 211.331L234.964 210.934L233.376 210.801L231.524 211.595L228.746 215.566L226.894 217.022L224.513 215.963L221.073 219.934L215.12 229.994L213.268 232.112L208.241 228.538L205.198 230.524L201.891 230.788L191.969 229.465H190.249L188.927 229.73L187.868 230.921L186.942 232.377L187.074 233.701L188.397 234.23H191.572L192.102 235.024L190.382 237.142L189.323 238.995V240.848L189.456 242.834L188.927 244.555L186.678 246.54H186.545L183.238 247.599L176.359 247.996L173.449 249.187L174.771 251.835L179.005 256.6L179.402 258.188L179.931 259.909V261.233L178.476 261.762L177.55 262.424L176.491 264.012L176.359 263.88L175.565 262.954L168.686 260.571L148.313 249.452L137.466 245.481L121.326 243.231L107.436 243.099L103.599 244.555L102.805 246.143L102.541 248.128L102.805 250.114L105.054 253.158L104.79 255.144L103.864 257.262L100.689 262.027L98.1752 264.542L95.2648 266.13L91.9576 266.395L88.6503 265.204L87.0628 263.483L86.1368 261.1L84.417 257.924L82.6972 255.938L75.289 249.717L69.865 247.467L51.7412 247.599L42.4809 245.349L35.6018 241.51L31.8976 240.319L13.6416 238.995L10.3343 235.157L8.74679 228.803L7.29162 216.361L5.43952 210.007L2.92601 205.771L2 205.374L2.39686 203.918L3.45516 200.212L4.38121 198.226L4.91037 197.3L5.70412 196.373L6.76243 195.579L8.34993 194.785L11.128 193.858L13.377 193.593L20.7852 194.255L27.1352 192.137L23.8279 188.564L16.9488 185.387L15.0968 184.063L15.4936 183.004L15.7582 182.342L20.9175 176.783L27.5321 170.959L31.1039 169.9L34.5434 170.562L36.3955 170.694L38.2476 170.429L40.0997 169.767L44.4652 167.12L49.2277 165.399L50.1538 164.738L50.6829 163.679L50.2861 161.825L49.8892 160.899L48.8308 159.84L47.6402 158.913L46.5819 157.325L46.185 154.678L47.5079 149.383L48.3017 144.883L50.1538 139.058L54.1225 135.617L55.1808 134.426L55.9745 132.97L55.7099 130.984L55.0485 129.396L52.2704 125.689L51.7412 123.969L51.8735 122.38L52.9319 120.659L54.9162 118.939L61.5308 115.762L63.3828 113.512Z" fill="#9C9C9C" stroke="white" stroke-width="0.5" stroke-linecap="round" stroke-linejoin="round"/>
<g clip-path="url(#clip0_339_195)">
<path d="M787.797 368.882C787.444 368.881 787.104 369.02 786.853 369.27C786.603 369.519 786.461 369.858 786.46 370.211C786.462 370.4 786.504 370.586 786.583 370.758C787.435 373.179 787.494 374.966 786.949 376.601C786.33 378.427 785.346 380.25 783.083 382.513C782.898 382.7 782.773 382.938 782.721 383.196C782.67 383.454 782.696 383.721 782.795 383.965C782.895 384.209 783.066 384.417 783.286 384.563C783.505 384.71 783.763 384.788 784.027 384.788L790.142 384.788L791.568 394.769L792.995 384.788L799.108 384.788C799.284 384.788 799.458 384.753 799.62 384.685C799.785 384.617 799.929 384.522 800.054 384.399C800.24 384.214 800.273 384.128 800.34 383.965C800.441 383.722 800.468 383.454 800.417 383.196C800.366 382.937 800.239 382.7 800.054 382.513C797.791 380.25 796.806 378.428 796.204 376.621C795.658 374.987 795.718 373.201 796.571 370.779C796.65 370.607 796.691 370.421 796.692 370.233C796.691 369.879 796.55 369.541 796.299 369.291C796.049 369.042 795.709 368.903 795.356 368.904L787.797 368.882Z" fill="#FFCA37"/>
</g>
<g clip-path="url(#clip1_339_195)">
<path d="M670.797 383.882C670.444 383.881 670.104 384.02 669.853 384.27C669.603 384.519 669.461 384.858 669.46 385.211C669.462 385.4 669.504 385.586 669.583 385.758C670.435 388.179 670.494 389.966 669.949 391.601C669.33 393.427 668.346 395.25 666.083 397.513C665.898 397.7 665.773 397.938 665.721 398.196C665.67 398.454 665.696 398.721 665.795 398.965C665.895 399.209 666.066 399.417 666.286 399.563C666.505 399.71 666.763 399.788 667.027 399.788L673.142 399.788L674.568 409.769L675.995 399.788L682.108 399.788C682.284 399.788 682.458 399.753 682.62 399.685C682.785 399.617 682.929 399.522 683.054 399.399C683.24 399.214 683.273 399.128 683.34 398.965C683.441 398.722 683.468 398.454 683.417 398.196C683.366 397.937 683.239 397.7 683.054 397.513C680.791 395.25 679.806 393.428 679.204 391.621C678.658 389.987 678.718 388.201 679.571 385.779C679.65 385.607 679.691 385.421 679.692 385.233C679.691 384.879 679.55 384.541 679.299 384.291C679.049 384.042 678.709 383.903 678.356 383.904L670.797 383.882Z" fill="#FFCA37"/>
</g>
<g clip-path="url(#clip2_339_195)">
<path d="M478.797 341.882C478.444 341.881 478.104 342.02 477.853 342.27C477.603 342.519 477.461 342.858 477.46 343.211C477.462 343.4 477.504 343.586 477.583 343.758C478.435 346.179 478.494 347.966 477.949 349.601C477.33 351.427 476.346 353.25 474.083 355.513C473.898 355.7 473.773 355.938 473.721 356.196C473.67 356.454 473.696 356.721 473.795 356.965C473.895 357.209 474.066 357.417 474.286 357.563C474.505 357.71 474.763 357.788 475.027 357.788L481.142 357.788L482.568 367.769L483.995 357.788L490.108 357.788C490.284 357.788 490.458 357.753 490.62 357.685C490.785 357.617 490.929 357.522 491.054 357.399C491.24 357.214 491.273 357.128 491.34 356.965C491.441 356.722 491.468 356.454 491.417 356.196C491.366 355.937 491.239 355.7 491.054 355.513C488.791 353.25 487.806 351.428 487.204 349.621C486.658 347.987 486.718 346.201 487.571 343.779C487.65 343.607 487.691 343.421 487.692 343.233C487.691 342.879 487.55 342.541 487.299 342.291C487.049 342.042 486.709 341.903 486.356 341.904L478.797 341.882Z" fill="#FFCA37"/>
</g>
<g clip-path="url(#clip3_339_195)">
<path d="M333.797 283.882C333.444 283.881 333.104 284.02 332.853 284.27C332.603 284.519 332.461 284.858 332.46 285.211C332.462 285.4 332.504 285.586 332.583 285.758C333.435 288.179 333.494 289.966 332.949 291.601C332.33 293.427 331.346 295.25 329.083 297.513C328.898 297.7 328.773 297.938 328.721 298.196C328.67 298.454 328.696 298.721 328.795 298.965C328.895 299.209 329.066 299.417 329.286 299.563C329.505 299.71 329.763 299.788 330.027 299.788L336.142 299.788L337.568 309.769L338.995 299.788L345.108 299.788C345.284 299.788 345.458 299.753 345.62 299.685C345.785 299.617 345.929 299.522 346.054 299.399C346.24 299.214 346.273 299.128 346.34 298.965C346.441 298.722 346.468 298.454 346.417 298.196C346.366 297.937 346.239 297.7 346.054 297.513C343.791 295.25 342.806 293.428 342.204 291.621C341.658 289.987 341.718 288.201 342.571 285.779C342.65 285.607 342.691 285.421 342.692 285.233C342.691 284.879 342.55 284.541 342.299 284.291C342.049 284.042 341.709 283.903 341.356 283.904L333.797 283.882Z" fill="#FFCA37"/>
</g>
</g>
<defs>
<filter id="filter0_d_339_195" x="0.75" y="0.75" width="820.5" height="443.5" filterUnits="userSpaceOnUse" color-interpolation-filters="sRGB">
<feFlood flood-opacity="0" result="BackgroundImageFix"/>
<feColorMatrix in="SourceAlpha" type="matrix" values="0 0 0 0 0 0 0 0 0 0 0 0 0 0 0 0 0 0 127 0" result="hardAlpha"/>
<feOffset dx="3" dy="10"/>
<feGaussianBlur stdDeviation="2"/>
<feComposite in2="hardAlpha" operator="out"/>
<feColorMatrix type="matrix" values="0 0 0 0 0 0 0 0 0 0 0 0 0 0 0 0 0 0 0.31 0"/>
<feBlend mode="normal" in2="BackgroundImageFix" result="effect1_dropShadow_339_195"/>
<feBlend mode="normal" in="SourceGraphic" in2="effect1_dropShadow_339_195" result="shape"/>
</filter>
<clipPath id="clip0_339_195">
<rect width="32" height="32" fill="white" transform="translate(768 380.627) rotate(-45)"/>
</clipPath>
<clipPath id="clip1_339_195">
<rect width="32" height="32" fill="white" transform="translate(651 395.627) rotate(-45)"/>
</clipPath>
<clipPath id="clip2_339_195">
<rect width="32" height="32" fill="white" transform="translate(459 353.627) rotate(-45)"/>
</clipPath>
<clipPath id="clip3_339_195">
<rect width="32" height="32" fill="white" transform="translate(314 295.627) rotate(-45)"/>
</clipPath>
</defs>
</svg>
