<svg width="24" height="24" viewBox="0 0 24 24" fill="none" xmlns="http://www.w3.org/2000/svg">
<path d="M5.00495 10.229L5.00195 10.043L5.00295 9.93L5.01095 9.859L6.01095 2.859C6.04208 2.63979 6.14508 2.43711 6.30379 2.28274C6.46251 2.12837 6.66797 2.03103 6.88795 2.006L7.00095 2H17.001C17.2222 1.99988 17.4373 2.07315 17.6124 2.20832C17.7876 2.34349 17.913 2.53294 17.969 2.747L17.991 2.859L18.997 9.909L19.001 10C19.001 13.226 16.441 15.564 13.001 15.945V20H16.001C16.2558 20.0003 16.501 20.0979 16.6863 20.2728C16.8717 20.4478 16.9832 20.687 16.9981 20.9414C17.0131 21.1958 16.9303 21.4464 16.7667 21.6418C16.6031 21.8373 16.371 21.9629 16.118 21.993L16.001 22H8.00095C7.74607 21.9997 7.50092 21.9021 7.31558 21.7272C7.13025 21.5522 7.01872 21.313 7.00378 21.0586C6.98884 20.8042 7.07163 20.5536 7.23522 20.3582C7.39881 20.1627 7.63086 20.0371 7.88395 20.007L8.00095 20H11.001V15.945C7.64295 15.574 5.12295 13.336 5.00495 10.229ZM16.134 4H7.86695L7.25995 8.258C8.11869 7.99759 9.0249 7.93311 9.91186 8.06931C10.7988 8.20551 11.6439 8.53893 12.385 9.045L12.601 9.2C13.2153 9.66095 13.9493 9.9353 14.7154 9.99028C15.4814 10.0452 16.2471 9.87852 16.921 9.51L16.134 4Z" fill="white"/>
</svg>
